<svg width="125" height="27" viewBox="0 0 125 27" fill="none" xmlns="http://www.w3.org/2000/svg">
<path d="M9.36719 8.10938C8.3776 8.16146 7.54427 8.53906 6.86719 9.24219C6.21615 9.94531 5.7474 10.7526 5.46094 11.6641C5.17448 12.5495 5.03125 13.4609 5.03125 14.3984C5.03125 15.3359 5.16146 16.2604 5.42188 17.1719C5.70833 18.0833 6.1901 18.8906 6.86719 19.5938C7.54427 20.2708 8.3776 20.6354 9.36719 20.6875H22.2578C23.8984 20.8438 24.7969 21.7422 24.9531 23.3828C24.9271 24.112 24.6536 24.724 24.1328 25.2188C23.612 25.6875 22.987 25.9219 22.2578 25.9219H9.79688H8C6.17708 25.8177 4.67969 25.1276 3.50781 23.8516C2.33594 22.5495 1.48958 21.0781 0.96875 19.4375C0.473958 17.7969 0.226562 16.1172 0.226562 14.3984C0.226562 13.1224 0.369792 11.8594 0.65625 10.6094C0.942708 9.35938 1.38542 8.17448 1.98438 7.05469C2.60938 5.90885 3.42969 4.93229 4.44531 4.125C5.48698 3.31771 6.67188 2.90104 8 2.875H8.74219H22.2578C23.8984 3.03125 24.7969 3.92969 24.9531 5.57031C24.9531 6.29948 24.6797 6.91146 24.1328 7.40625C23.612 7.875 22.987 8.10938 22.2578 8.10938H9.36719ZM31.2422 7.79688C31.9453 7.82292 32.5443 8.08333 33.0391 8.57812C33.5339 9.04688 33.7943 9.63281 33.8203 10.3359V23.8516C33.6641 25.4141 32.8047 26.2604 31.2422 26.3906C30.513 26.3906 29.875 26.1562 29.3281 25.6875C28.8073 25.1927 28.5469 24.5807 28.5469 23.8516V10.3359C28.5729 9.60677 28.8464 9.00781 29.3672 8.53906C29.888 8.04427 30.513 7.79688 31.2422 7.79688ZM27.9609 2.71875C27.9609 1.98958 28.2734 1.36458 28.8984 0.84375C29.5234 0.322917 30.2786 0.0625 31.1641 0.0625C32.0495 0.0625 32.8047 0.322917 33.4297 0.84375C34.0547 1.36458 34.3672 1.98958 34.3672 2.71875C34.3672 3.47396 34.0547 4.11198 33.4297 4.63281C32.8047 5.15365 32.0495 5.41406 31.1641 5.41406C30.2786 5.41406 29.5234 5.15365 28.8984 4.63281C28.2734 4.11198 27.9609 3.47396 27.9609 2.71875ZM51.0469 7.60156C52.401 7.60156 53.7292 7.75781 55.0312 8.07031C56.3594 8.38281 57.6224 8.85156 58.8203 9.47656C60.0182 10.0755 61.0729 10.8828 61.9844 11.8984C62.9219 12.9141 63.4297 14.125 63.5078 15.5312V17.1719V23.8516C63.3516 25.4141 62.4922 26.2604 60.9297 26.3906C60.2005 26.3906 59.5625 26.1562 59.0156 25.6875C58.4948 25.1927 58.2344 24.5807 58.2344 23.8516V22.1328V16.7422C58.1823 15.9349 57.8698 15.2708 57.2969 14.75C56.75 14.2031 56.125 13.7734 55.4219 13.4609C54.7448 13.1484 54.0286 12.9141 53.2734 12.7578C52.5443 12.6016 51.8021 12.5234 51.0469 12.5234C50.2917 12.5234 49.5365 12.6016 48.7812 12.7578C48.0521 12.9141 47.3359 13.1484 46.6328 13.4609C45.9557 13.7734 45.3307 14.2031 44.7578 14.75C44.2109 15.2708 43.9115 15.9349 43.8594 16.7422V22.1328V23.8516C43.7292 25.4141 42.8828 26.2604 41.3203 26.3906C40.5911 26.3906 39.9531 26.1562 39.4062 25.6875C38.8854 25.1927 38.625 24.5807 38.625 23.8516V17.1719V15.5312C38.7031 14.125 39.1979 12.9141 40.1094 11.8984C41.0208 10.8828 42.0755 10.0755 43.2734 9.47656C44.4714 8.85156 45.7214 8.38281 47.0234 8.07031C48.3516 7.75781 49.6927 7.60156 51.0469 7.60156ZM76.4766 25.9219C74.1849 25.8438 72.4531 25.3099 71.2812 24.3203C70.1094 23.3047 69.263 22.1719 68.7422 20.9219C68.2214 19.6458 67.9609 18.3568 67.9609 17.0547C67.9609 15.7005 68.2083 14.3984 68.7031 13.1484C69.224 11.8724 70.0703 10.7396 71.2422 9.75C72.4401 8.73438 73.9505 8.21354 75.7734 8.1875H90.6172C91.3464 8.1875 91.9583 8.4349 92.4531 8.92969C92.974 9.39844 93.2344 9.97135 93.2344 10.6484C93.2344 11.3516 92.974 11.9505 92.4531 12.4453C91.9583 12.9141 91.3464 13.1484 90.6172 13.1484H76.0078C75.4349 13.1484 74.9271 13.3438 74.4844 13.7344C74.0677 14.125 73.7552 14.6328 73.5469 15.2578C73.3646 15.8828 73.2734 16.4948 73.2734 17.0938C73.2734 17.7448 73.3646 18.3828 73.5469 19.0078C73.7552 19.6328 74.0677 20.1406 74.4844 20.5312C74.9271 20.8958 75.4349 21.0911 76.0078 21.1172H90.6172C91.3464 21.1172 91.9583 21.3516 92.4531 21.8203C92.974 22.2891 93.2344 22.849 93.2344 23.5C93.2344 24.1771 92.974 24.75 92.4531 25.2188C91.9583 25.6875 91.3464 25.9219 90.6172 25.9219H76.4766ZM92.7656 16.9766C92.7656 17.4714 92.5443 17.901 92.1016 18.2656C91.7109 18.6042 91.2161 18.7734 90.6172 18.7734H77.8438C77.2448 18.7734 76.737 18.6042 76.3203 18.2656C75.9036 17.901 75.6953 17.4714 75.6953 16.9766C75.6953 16.5078 75.9036 16.0911 76.3203 15.7266C76.737 15.388 77.2448 15.2188 77.8438 15.2188H90.6172C91.2161 15.2188 91.724 15.401 92.1406 15.7656C92.5573 16.1042 92.7656 16.5078 92.7656 16.9766Z" fill="white"/>
<path d="M96.9062 5.49219C96.9062 4.76302 97.1536 4.15104 97.6484 3.65625C98.1693 3.13542 98.7943 2.875 99.5234 2.875H122.258C122.987 2.875 123.612 3.1224 124.133 3.61719C124.628 4.13802 124.875 4.76302 124.875 5.49219C124.875 6.22135 124.628 6.83333 124.133 7.32812C123.977 7.48438 123.82 7.61458 123.664 7.71875L107.102 20.6094H122.258C122.987 20.6094 123.612 20.8568 124.133 21.3516C124.628 21.8724 124.875 22.4974 124.875 23.2266C124.875 23.9557 124.615 24.5807 124.094 25.1016C123.599 25.5964 122.987 25.8438 122.258 25.8438H99.5234C98.7943 25.8438 98.1823 25.5833 97.6875 25.0625C97.1667 24.5677 96.9062 23.9557 96.9062 23.2266C96.9062 22.5495 97.1276 21.9635 97.5703 21.4688H97.5312L97.6875 21.3516C97.8438 21.1953 98.013 21.0651 98.1953 20.9609L114.953 8.10938H99.5234C98.7943 8.10938 98.1823 7.84896 97.6875 7.32812C97.1667 6.83333 96.9062 6.22135 96.9062 5.49219Z" fill="#E50000"/>
</svg>
