<svg width="26" height="26" viewBox="0 0 26 26" fill="none" xmlns="http://www.w3.org/2000/svg">
<g clip-path="url(#clip0_103_991)">
<path d="M17.3333 22.75V20.5833C17.3333 19.4341 16.8767 18.3319 16.064 17.5192C15.2514 16.7065 14.1492 16.25 12.9999 16.25H5.41658C4.26731 16.25 3.16511 16.7065 2.35246 17.5192C1.5398 18.3319 1.08325 19.4341 1.08325 20.5833V22.75M21.6666 8.66667V15.1667M24.9166 11.9167H18.4166M13.5416 7.58333C13.5416 9.97657 11.6015 11.9167 9.20825 11.9167C6.81502 11.9167 4.87492 9.97657 4.87492 7.58333C4.87492 5.1901 6.81502 3.25 9.20825 3.25C11.6015 3.25 13.5416 5.1901 13.5416 7.58333Z" stroke="#F5F5F5" stroke-width="4" stroke-linecap="round" stroke-linejoin="round"/>
</g>
<defs>
<clipPath id="clip0_103_991">
<rect width="26" height="26" fill="white"/>
</clipPath>
</defs>
</svg>
